<svg id="Layer_1" enable-background="new 0 0 512 512" height="512" viewBox="0 0 512 512" width="512" xmlns="http://www.w3.org/2000/svg"><g><circle cx="256" cy="256" fill="#ffaac1" r="256"/><g><path d="m150.837 9.052h-35.086c-9.48 0-17.164 7.685-17.164 17.164v41.837h69.414v-41.836c.001-9.48-7.684-17.165-17.164-17.165z" fill="#50555a"/><path d="m129.308 9.052h-13.556c-9.48 0-17.164 7.685-17.164 17.164v41.837h13.556v-41.836c-.001-9.48 7.684-17.165 17.164-17.165z" fill="#373c41"/><path d="m170.377 433.68h-71.233c-7.855 0-14.401-6.015-15.065-13.841l-17.596-323.314h133.624l-14.649 323.101c-.56 7.917-7.145 14.054-15.081 14.054z" fill="#696e73"/><path d="m105.977 419.838-17.596-323.313h-21.898l17.596 323.313c.664 7.827 7.21 13.841 15.065 13.841h21.898c-7.855.001-14.401-6.014-15.065-13.841z" fill="#50555a"/><path d="m163.124 59.5h-59.659c-16.318 0-30.642 10.861-35.047 26.573l-1.935 10.452h133.624l-1.935-10.452c-4.406-15.712-18.73-26.573-35.048-26.573z" fill="#82878c"/><path d="m125.363 59.5h-21.898c-16.318 0-30.642 10.86-35.047 26.573l-1.936 10.452h21.898l1.936-10.452c4.405-15.712 18.729-26.573 35.047-26.573z" fill="#a0a0a5"/><path d="m66.483 96.525h133.623" fill="none" stroke="#a0a0a5" stroke-linecap="round" stroke-miterlimit="10" stroke-width="6.257"/><path d="m66.483 96.525h47.073" fill="none" stroke="#b9b9be" stroke-linecap="round" stroke-miterlimit="10" stroke-width="6.257"/><g fill="#fff"><path d="m162.122 264.286c-7.37 0-13.344-5.974-13.344-13.344v-125.543c0-7.37 5.974-13.344 13.344-13.344 7.37 0 13.344 5.974 13.344 13.344v125.543c0 7.37-5.974 13.344-13.344 13.344z" opacity=".12"/><path d="m174.174 93.315c1.056-1.927 1.659-4.138 1.659-6.491 0-7.471-6.056-13.527-13.527-13.527s-13.527 6.056-13.527 13.527c0 2.353.603 4.563 1.659 6.491z" opacity=".12"/></g></g><g><g><path d="m208.746 286.686h-2.423l-106.145 106.145c27.459 27.91 65.656 45.224 107.902 45.224 41.969 0 79.945-17.084 107.363-44.672z" fill="#8bc727"/><path d="m228.836 435.563c-42.246 0-80.443-17.314-107.902-45.224l95.732-95.732-7.92-7.92h-2.423l-106.145 106.144c27.459 27.91 65.656 45.224 107.902 45.224 9.738 0 19.257-.931 28.482-2.688-2.559.129-5.134.196-7.726.196z" fill="#78a91f"/><path d="m208.746 286.686h-2.423l-94.503 94.503c24.479 24.931 58.56 40.401 96.26 40.401 37.422 0 71.282-15.241 95.721-39.849z" fill="#b5f43b"/><path d="m208.746 286.686-1.226-1.281-1.197 1.281-86.888 86.888c22.53 22.982 53.919 37.247 88.645 37.247 34.448 0 65.616-14.035 88.106-36.695z" fill="#fe646f"/><path d="m236.801 405.441c-34.726 0-66.115-14.265-88.645-37.248l59.364-82.789-1.197 1.281-86.888 86.888c22.53 22.982 53.919 37.247 88.645 37.247 12.962 0 25.459-1.989 37.205-5.675-2.804.191-5.632.296-8.484.296z" fill="#fd4755"/><g fill="#383838"><path id="XMLID_51_" d="m175.919 342.072c-4.061 3.738-5.46 8.51-3.125 10.659s7.52.861 11.581-2.876c4.061-3.738 3.125-10.659 3.125-10.659s-7.52-.862-11.581 2.876z"/><path id="XMLID_49_" d="m228.66 339.196s-.936 6.921 3.125 10.659 9.246 5.025 11.581 2.876.936-6.921-3.125-10.659-11.581-2.876-11.581-2.876z"/><path id="XMLID_46_" d="m207.656 347.041s5.979 4.285 5.979 9.571-2.677 9.571-5.979 9.571-5.979-4.285-5.979-9.571 5.979-9.571 5.979-9.571z"/></g></g></g><g><path d="m405.198 436.235h-100.413c-8.744 0-16.04-6.68-16.808-15.39l-19.209-217.692h172.447l-19.209 217.692c-.769 8.71-8.064 15.39-16.808 15.39z" fill="#fff"/><path d="m268.768 203.152 19.209 217.692c.769 8.71 8.064 15.39 16.808 15.39h12.316l-20.567-233.082z" fill="#d2f0ff"/><g><path d="m368.396 152.255c-1.061-1.18-2.158-2.339-3.293-3.474-34.84-34.84-91.327-34.84-126.167 0s-34.84 91.327 0 126.167c1.135 1.135 2.295 2.232 3.475 3.293z" fill="#ffa50a"/></g><g><path d="m359.825 160.825c-1.051-1.188-2.139-2.355-3.276-3.491-30.116-30.116-78.944-30.116-109.06 0s-30.116 78.944 0 109.06c1.137 1.137 2.303 2.225 3.491 3.276z" fill="#ffdc64"/></g><g fill="#fa870a"><path d="m246.544 171.102c-6.748 9.159-10.939 19.607-12.574 30.372-.423 2.782 1.777 5.275 4.591 5.275h39.923c4.129 0 6.197-4.992 3.277-7.912l-28.229-28.229c-1.995-1.993-5.316-1.776-6.988.494z"/><path d="m278.484 216.978h-39.923c-2.814 0-5.013 2.493-4.591 5.275 1.635 10.765 5.826 21.213 12.574 30.372 1.673 2.27 4.994 2.488 6.987.494l28.229-28.229c2.92-2.92.853-7.912-3.276-7.912z"/><path d="m260.764 163.376 28.23 28.23c2.92 2.92 7.912.852 7.912-3.277v-39.923c0-2.814-2.493-5.013-5.275-4.591-10.765 1.635-21.213 5.826-30.372 12.574-2.272 1.672-2.489 4.993-.495 6.987z"/><path d="m315.045 191.605 28.229-28.229c1.994-1.994 1.777-5.315-.494-6.987-9.159-6.748-19.607-10.939-30.372-12.574-2.782-.423-5.275 1.777-5.275 4.591v39.923c0 4.128 4.992 6.196 7.912 3.276z"/></g><path d="m268.768 203.152 3.951 44.779 44.779-44.779z" fill="#fff5aa"/><g fill="#ffa50a"><path d="m271.584 235.066 10.177-10.177c2.92-2.92.852-7.912-3.277-7.912h-8.496z"/><path d="m282.996 203.152h-14.228l.317 3.597h9.398c2.369 0 4.053-1.644 4.513-3.597z"/><path d="m292.488 287.044 10.455 118.485c.597 6.765 6.263 11.953 13.054 11.953h77.988c6.791 0 12.457-5.188 13.054-11.953l10.455-118.485z"/></g><path d="m302.943 405.528c.581 6.579 5.959 11.652 12.501 11.927l-11.507-130.411h-11.448z" fill="#fa870a"/><path d="m300.816 381.424 2.127 24.104c.597 6.765 6.263 11.953 13.054 11.953h77.988c6.792 0 12.457-5.188 13.054-11.953l2.127-24.104z" fill="#fa870a"/><path d="m303.214 407.207c.055.248.105.498.174.74.053.189.122.37.183.555.065.195.123.393.197.584.081.209.176.41.267.613.07.158.134.318.21.472.11.223.235.437.357.652.07.124.135.252.21.374.142.233.298.456.454.678.066.094.127.192.195.284.177.238.365.466.557.691.058.068.112.138.17.205.212.239.435.467.664.689.046.044.089.092.135.135.247.234.505.457.771.671.032.026.063.054.096.08.281.223.572.434.872.633.019.013.038.027.057.04.313.207.636.4.968.58.006.003.012.007.018.01 1.705.921 3.634 1.475 5.676 1.56l-3.179-36.031h-11.448l2.127 24.104c.037.417.094.827.168 1.231.026.154.068.3.101.45z" fill="#fa690f"/><path d="m371.239 349.548h-27.827c-2.955 0-5.351-2.396-5.351-5.351v-27.827c0-2.955 2.396-5.351 5.351-5.351h27.827c2.955 0 5.351 2.396 5.351 5.351v27.827c0 2.955-2.396 5.351-5.351 5.351z" fill="#fff"/><path d="m369.889 407.974-25.87-10.25c-2.748-1.089-4.093-4.199-3.004-6.946l10.25-25.87c1.089-2.748 4.199-4.093 6.946-3.004l25.87 10.25c2.748 1.089 4.093 4.199 3.004 6.946l-10.25 25.87c-1.088 2.747-4.198 4.092-6.946 3.004z" fill="#fff"/><path d="m350.768 397.724c-2.748-1.089-4.093-4.199-3.004-6.946l10.25-25.87c.389-.983 1.044-1.776 1.841-2.353l-1.644-.651c-2.748-1.089-5.858.256-6.946 3.004l-10.25 25.87c-1.089 2.748.256 5.858 3.004 6.946l25.87 10.25c1.765.7 3.673.385 5.105-.651z" fill="#d2f0ff"/><path d="m346.159 344.196v-27.827c0-2.955 2.396-5.351 5.351-5.351h-8.098c-2.956 0-5.352 2.396-5.352 5.351v27.827c0 2.956 2.396 5.351 5.352 5.351h8.098c-2.955.001-5.351-2.395-5.351-5.351z" fill="#d2f0ff"/></g></g></svg>