<svg id="Layer_1" enable-background="new 0 0 512 512" height="512" viewBox="0 0 512 512" width="512" xmlns="http://www.w3.org/2000/svg"><g><circle cx="256" cy="256" fill="#ffe65a" r="256"/><g><path d="m323.759 496.086h-125.126c-10.673 0-19.326-8.653-19.326-19.326v-19.826h163.778v19.826c0 10.673-8.653 19.326-19.326 19.326z" fill="#73c8f0"/><path d="m87.597 305.563h347.199c0 95.876-77.723 173.599-173.599 173.599s-173.6-77.722-173.6-173.599" fill="#afe6ff"/><path d="m110.021 305.563h-22.424c0 95.876 77.723 173.599 173.599 173.599 3.768 0 7.504-.134 11.212-.37-90.649-5.78-162.387-81.12-162.387-173.229z" fill="#73c8f0"/><g><path d="m434.795 317.751h-347.199c-6.731 0-12.187-5.457-12.187-12.187 0-6.731 5.456-12.187 12.187-12.187h347.199c6.731 0 12.187 5.457 12.187 12.187.001 6.73-5.456 12.187-12.187 12.187z" fill="#afe6ff"/></g><path d="m135.858 305.563c0-6.731 5.456-12.187 12.187-12.187h-60.449c-6.731 0-12.187 5.457-12.187 12.187 0 6.731 5.456 12.187 12.187 12.187h60.449c-6.73.001-12.187-5.456-12.187-12.187z" fill="#e0f5ff"/></g><g><path d="m428.735 137.154-54.92 62.908c-7.878 9.024-9.951 21.517-6.14 32.873.02.058.039.117.058.175 4.488 13.615 13.302 24.007 25.482 28.062 24.947 8.305 54.541-13.112 66.102-47.836 11.561-34.725.709-69.607-24.237-77.912-2.272-.754-4.772-.072-6.345 1.73z" fill="#fd4755"/><g><path d="m421.395 186.456c-6.5 19.525-20.655 33.385-35.196 36.343-2.428.494-4.379 2.296-5.064 4.677s.008 4.947 1.804 6.654c2.837 2.697 6.152 4.753 9.898 6 18.579 6.185 40.621-9.766 49.231-35.627 6.38-19.165 3.588-38.408-5.836-49.588-1.881-2.231-4.997-2.975-7.683-1.835s-4.32 3.9-4.019 6.802c.858 8.286-.092 17.434-3.135 26.574z" fill="#d13824"/></g><g fill="#f4c833"><path d="m395.968 231.37c-.051-1.218.809-3.64 1.506-5.386.152-.379.512-.634.92-.651s.788.207.971.573c.841 1.682 1.9 4.023 1.951 5.241.085 2.033-1.043 3.731-2.52 3.793-1.476.061-2.742-1.537-2.828-3.57z"/><path d="m410.866 224.462c-.876-1.177-1.662-4.169-2.151-6.379-.106-.48.079-.978.474-1.271.395-.294.924-.328 1.354-.088 1.977 1.103 4.617 2.715 5.492 3.892 1.462 1.965 1.491 4.419.064 5.481s-3.77.33-5.233-1.635z"/><path d="m421.988 213.187c-1.178-.874-2.793-3.513-3.899-5.488-.24-.429-.206-.959.087-1.354s.791-.58 1.271-.475c2.211.487 5.203 1.269 6.381 2.143 1.967 1.46 2.702 3.802 1.641 5.23-1.06 1.429-3.514 1.404-5.481-.056z"/><path d="m430.59 200.44c-1.381-.496-3.691-2.552-5.322-4.123-.354-.341-.475-.858-.309-1.321s.589-.784 1.079-.822c2.257-.175 5.348-.294 6.728.202 2.306.827 3.687 2.855 3.086 4.53-.6 1.675-2.957 2.361-5.262 1.534z"/><path d="m434.743 184.187c-1.191-.14-3.408-1.352-4.996-2.302-.345-.206-.536-.596-.489-.995s.324-.733.707-.853c1.764-.555 4.203-1.218 5.393-1.078 1.988.234 3.461 1.594 3.291 3.038-.169 1.444-1.918 2.424-3.906 2.19z"/><path d="m435.232 168.901c-.817.07-2.47-.437-3.665-.855-.259-.091-.441-.325-.465-.599s.116-.536.356-.67c1.106-.615 2.649-1.395 3.467-1.465 1.364-.117 2.539.592 2.624 1.583s-.952 1.889-2.317 2.006z"/></g></g><g><circle cx="94.039" cy="93.248" fill="#3eaf65" r="60.634"/><circle cx="94.039" cy="93.248" fill="#dfffa6" r="46.742"/><path d="m55.359 93.248c0-24.456 18.785-44.512 42.711-46.558-1.33-.114-2.672-.184-4.032-.184-25.815 0-46.742 20.927-46.742 46.743 0 25.815 20.927 46.742 46.742 46.742 1.359 0 2.702-.071 4.032-.185-23.926-2.046-42.711-22.103-42.711-46.558z" fill="#c5f274"/><circle cx="94.039" cy="93.248" fill="#aac85a" r="21.602"/><g fill="#dfffa6"><path d="m91.287 105.821c0-1.3 1.024-3.842 1.846-5.672.178-.397.573-.653 1.009-.653s.831.256 1.009.653c.821 1.83 1.845 4.372 1.845 5.672 0 2.17-1.278 3.93-2.855 3.929s-2.854-1.759-2.854-3.929z"/><path d="m91.287 80.852c0 1.3 1.024 3.842 1.846 5.672.178.397.574.653 1.009.653s.83-.256 1.009-.654c.821-1.83 1.845-4.372 1.844-5.672 0-2.17-1.278-3.93-2.855-3.929s-2.853 1.759-2.853 3.93z"/><path d="m100.951 104.183c-.919-.919-1.992-3.441-2.705-5.316-.155-.407-.056-.867.252-1.175s.768-.406 1.175-.251c1.875.713 4.396 1.787 5.315 2.706 1.534 1.535 1.875 3.683.76 4.797s-3.263.773-4.797-.761z"/><path d="m83.295 86.527c.919.919 3.441 1.992 5.316 2.705.407.155.867.056 1.175-.252s.406-.768.251-1.175c-.713-1.875-1.787-4.396-2.706-5.315-1.535-1.534-3.683-1.875-4.797-.76-1.115 1.115-.774 3.262.761 4.797z"/><path d="m106.626 96.191c-1.3 0-3.842-1.024-5.672-1.846-.397-.178-.653-.573-.653-1.009s.256-.831.653-1.009c1.83-.821 4.372-1.845 5.672-1.845 2.17 0 3.93 1.278 3.929 2.855s-1.759 2.854-3.929 2.854z"/><path d="m81.656 96.191c1.3 0 3.842-1.024 5.672-1.846.397-.178.653-.573.653-1.009s-.256-.831-.653-1.009c-1.83-.821-4.372-1.845-5.672-1.845-2.17 0-3.93 1.278-3.929 2.855s1.759 2.854 3.929 2.854z"/><path d="m104.987 86.527c-.919.919-3.441 1.992-5.316 2.705-.407.155-.867.056-1.175-.252s-.406-.768-.251-1.175c.713-1.875 1.787-4.396 2.706-5.315 1.535-1.534 3.683-1.875 4.797-.76s.774 3.262-.761 4.797z"/><path d="m87.331 104.183c.919-.919 1.992-3.441 2.705-5.316.155-.407.056-.867-.252-1.175s-.768-.406-1.175-.251c-1.875.713-4.396 1.787-5.315 2.706-1.534 1.535-1.875 3.683-.76 4.797s3.263.773 4.797-.761z"/></g></g><g><circle cx="323.912" cy="378.735" fill="#3eaf65" r="60.634"/><circle cx="323.912" cy="378.735" fill="#dfffa6" r="46.742"/><path d="m285.232 378.735c0-24.456 18.785-44.512 42.711-46.558-1.33-.114-2.672-.184-4.031-.184-25.815 0-46.742 20.927-46.742 46.743 0 25.815 20.927 46.742 46.742 46.742 1.359 0 2.702-.071 4.031-.185-23.926-2.046-42.711-22.102-42.711-46.558z" fill="#c5f274"/><circle cx="323.912" cy="378.735" fill="#aac85a" r="21.602"/><g fill="#dfffa6"><path d="m321.16 391.308c0-1.3 1.024-3.842 1.846-5.672.178-.397.573-.653 1.009-.653s.831.256 1.009.653c.821 1.83 1.845 4.372 1.845 5.672 0 2.17-1.278 3.93-2.855 3.929-1.577.001-2.855-1.758-2.854-3.929z"/><path d="m321.16 366.339c0 1.3 1.024 3.842 1.846 5.672.178.397.574.653 1.009.653s.83-.256 1.009-.654c.821-1.83 1.845-4.372 1.844-5.672 0-2.17-1.278-3.93-2.855-3.929-1.576 0-2.854 1.76-2.853 3.93z"/><path d="m330.824 389.67c-.919-.919-1.992-3.441-2.705-5.316-.155-.407-.056-.867.252-1.175s.768-.406 1.175-.251c1.875.713 4.396 1.787 5.315 2.706 1.534 1.535 1.875 3.683.76 4.797s-3.263.774-4.797-.761z"/><path d="m313.168 372.014c.919.919 3.441 1.992 5.316 2.705.407.155.867.056 1.175-.252s.406-.768.251-1.175c-.713-1.875-1.787-4.396-2.706-5.315-1.535-1.534-3.683-1.875-4.797-.76s-.774 3.262.761 4.797z"/><path d="m336.499 381.678c-1.3 0-3.842-1.024-5.672-1.846-.397-.178-.653-.573-.653-1.009s.255-.831.653-1.009c1.83-.821 4.372-1.845 5.672-1.845 2.17 0 3.93 1.278 3.929 2.855 0 1.576-1.759 2.854-3.929 2.854z"/><path d="m311.529 381.678c1.3 0 3.842-1.024 5.672-1.846.397-.178.653-.573.653-1.009s-.256-.831-.653-1.009c-1.83-.821-4.372-1.845-5.672-1.845-2.17 0-3.93 1.278-3.929 2.855-.001 1.576 1.759 2.854 3.929 2.854z"/><path d="m334.86 372.014c-.919.919-3.441 1.992-5.316 2.705-.407.155-.867.056-1.175-.252s-.406-.768-.251-1.175c.713-1.875 1.787-4.396 2.706-5.315 1.535-1.534 3.683-1.875 4.797-.76 1.115 1.115.774 3.262-.761 4.797z"/><path d="m317.204 389.67c.919-.919 1.992-3.441 2.705-5.316.155-.407.056-.867-.252-1.175s-.768-.406-1.175-.251c-1.875.713-4.396 1.787-5.315 2.706-1.534 1.535-1.875 3.683-.76 4.797s3.263.774 4.797-.761z"/></g></g><g><g id="XMLID_18_"><g id="XMLID_19_"><g id="XMLID_20_"><path d="m194.9 294.085c-1.297 1.445-2.251 3.055-2.877 4.76-1.56 4.251-6.064 7.226-10.734 7.455-.591.029-1.186.069-1.785.122-19.248 1.68-35.016 14.401-35.22 28.411-.025 1.699.185 3.336.603 4.901.769 2.877.222 6.046-1.81 8.631-8.059 10.253-10.679 22.112-5.663 31.265 4.981 9.089 16.262 13.266 29.127 12.075 3.412-.316 6.494.98 8.571 3.287 1.126 1.25 2.438 2.353 3.939 3.281 11.919 7.367 31.126.92 42.899-14.4.366-.477.721-.957 1.063-1.439 2.706-3.814 7.636-6.009 12.059-5.037 1.774.39 3.645.451 5.561.136 9.61-1.582 16.707-12.041 15.851-23.36-.35-4.629-1.979-8.68-4.437-11.745-2.548-3.176-2.744-7.628-.274-11.354 5.209-7.858 5.254-16.781 5.254-16.781s-7.297-4.293-17.072-4.195c-4.385.044-7.997-2.528-9.193-6.347-1.211-3.866-3.796-7.573-7.642-10.459-9.081-6.811-21.715-6.457-28.22.793z" fill="#97d729"/></g></g></g><g><path d="m243.479 315.942c-2.47 3.726-2.274 8.178.274 11.354 2.459 3.065 4.087 7.116 4.437 11.745.856 11.319-6.24 21.778-15.851 23.36-1.916.315-3.786.254-5.561-.136-4.423-.972-9.354 1.223-12.059 5.037-.342.482-.696.962-1.063 1.439-11.773 15.32-30.979 21.767-42.899 14.4-1.501-.928-2.814-2.031-3.939-3.281-2.077-2.306-5.16-3.603-8.571-3.287-9.132.845-17.452-1.028-23.301-5.428.23 2.983 1.022 5.849 2.467 8.486 4.981 9.089 16.262 13.266 29.127 12.075 3.412-.316 6.494.98 8.571 3.287 1.126 1.25 2.438 2.353 3.939 3.281 11.919 7.367 31.126.92 42.899-14.4.366-.477.721-.957 1.063-1.439 2.706-3.814 7.636-6.009 12.059-5.037 1.774.39 3.645.451 5.561.136 9.61-1.582 16.707-12.041 15.851-23.36-.35-4.629-1.978-8.68-4.437-11.745-2.548-3.176-2.743-7.628-.274-11.354 5.209-7.858 5.254-16.781 5.254-16.781s-4.333-2.538-10.783-3.664c-.705 1.75-1.6 3.556-2.764 5.312z" fill="#8bc727"/></g><g><path d="m276.548 298.638c1.51.441 2.852 1.458 3.668 2.947 1.631 2.978.541 6.714-2.437 8.346l-79.799 43.733c-2.978 1.632-6.714.541-8.346-2.437-1.631-2.978-.541-6.714 2.437-8.346l79.799-43.733c1.489-.816 3.167-.951 4.678-.51z" fill="#78a91f"/></g></g><g><path d="m274.014 220.75c-13.786 16.363-36.407 1.358-61.847-20.077s-44.066-41.182-30.279-57.544 54.764-23.145 80.204-1.71 25.708 62.968 11.922 79.331z" fill="#ffebb4"/><path d="m194.959 154.143c12.583-14.935 47.814-21.875 73.212-6.676-1.844-2.146-3.861-4.178-6.08-6.048-25.44-21.434-66.418-14.652-80.204 1.71-13.786 16.363 4.839 36.11 30.279 57.544 2.22 1.87 4.417 3.688 6.59 5.444-21.957-19.284-36.38-37.039-23.797-51.974z" fill="#e6ca81"/><path d="m251.413 226.32c6.04-15.614 3.158-41.325-13.916-55.711s-42.902-12.864-57.265-4.262c3.737 7.37 10.671 15.138 19.307 23.204-14.633 10.125-29.372 23.104-33.852 28.421-8.682 10.305-7.367 25.697 2.938 34.379s25.697 7.367 34.379-2.938c4.48-5.317 14.77-22.044 22.265-38.183 9.415 7.142 18.247 12.658 26.144 15.09z" fill="#f0d897"/><g fill="#e6ca81"><path d="m176.581 227.151c4.48-5.317 19.219-18.296 33.852-28.421-8.636-8.067-15.57-15.835-19.307-23.204 12.805-7.669 34.719-9.7 51.422.143-1.525-1.799-3.199-3.499-5.051-5.059-17.074-14.386-42.902-12.864-57.265-4.262 3.737 7.37 10.671 15.138 19.307 23.204-14.633 10.125-29.372 23.104-33.852 28.421-8.682 10.305-7.367 25.697 2.938 34.379 1.895 1.597 3.963 2.853 6.129 3.779-5.683-8.775-5.259-20.571 1.827-28.98z"/><path d="m225.269 211.23-14.836-12.501-7.863 5.694z"/></g></g><g><ellipse cx="340.674" cy="77.182" fill="#9bb9c3" rx="31.004" ry="33.945" transform="matrix(.982 -.192 .192 .982 -8.477 66.704)"/><path d="m345.213 100.431c-15.243 2.976-30.262-6.831-35.605-22.41.093 1.686.303 3.39.637 5.101 3.592 18.4 20.128 30.657 36.933 27.376 16.806-3.281 27.517-20.857 23.925-39.257-.334-1.711-.781-3.369-1.329-4.966.91 16.445-9.319 31.18-24.561 34.156z" fill="#738c96"/><path d="m460.036 88.198-104.268 20.355-12.958-66.374 104.268-20.355c4.587-.895 9.031 2.097 9.926 6.684l9.715 49.764c.896 4.586-2.097 9.031-6.683 9.926z" fill="#55c7a6"/><path d="m460.036 88.198-104.268 20.355-3.91-20.028 112.573-21.976 2.288 11.723c.896 4.586-2.097 9.031-6.683 9.926z" fill="#2fa885"/><path d="m340.823 40.713h25.528v67.627h-25.528z" fill="#554e56" transform="matrix(.982 -.192 .192 .982 -7.729 69.129)"/><path d="m345.347 87.497h25.528v20.406h-25.528z" fill="#373c41" transform="matrix(.982 -.192 .192 .982 -12.085 70.425)"/><g fill="#738c96"><ellipse cx="329.168" cy="98.153" rx="2.679" ry="5.101" transform="matrix(.982 -.192 .192 .982 -12.708 64.888)"/><ellipse cx="325.585" cy="79.795" rx="2.679" ry="5.101" transform="matrix(.982 -.192 .192 .982 -9.257 63.861)"/><ellipse cx="321.769" cy="60.252" rx="2.679" ry="5.101" transform="matrix(.982 -.192 .192 .982 -5.583 62.768)"/><ellipse cx="317.762" cy="91.664" rx="2.679" ry="5.101" transform="matrix(.982 -.192 .192 .982 -11.676 62.582)"/><ellipse cx="313.947" cy="72.122" rx="2.679" ry="5.101" transform="matrix(.982 -.192 .192 .982 -8.002 61.489)"/></g></g></g></svg>