<svg height="512pt" viewBox="0 0 512 512" width="512pt" xmlns="http://www.w3.org/2000/svg"><path d="m386.003906 469.304688c0 4.527343-2.433594 8.71875-6.394531 10.910156-36.644531 20.246094-78.777344 31.785156-123.609375 31.785156-141.386719 0-256-114.613281-256-256 0-11.648438.785156-23.109375 2.296875-34.34375.460937-3.429688 3.398437-5.988281 6.859375-5.988281 56.539062 0 102.375-45.835938 102.375-102.375v-65.703125c0-1.839844.90625-3.570313 2.4375-4.59375 40.640625-27.152344 89.484375-42.996094 142.03125-42.996094 141.386719 0 256 114.613281 256 256 0 38.265625-8.40625 74.566406-23.457031 107.167969-1.390625 3.015625-4.410157 4.949219-7.730469 4.949219-52.359375 0-94.804688 42.449218-94.804688 94.808593v6.378907zm0 0" fill="#49cb5c"/><path d="m194.667969 138.332031c0-59.460937 48.203125-107.667969 107.667969-107.667969 59.464843 0 107.667968 48.207032 107.667968 107.667969 0 59.464844-48.203125 107.667969-107.667968 107.667969-59.460938 0-107.667969-48.203125-107.667969-107.667969zm-19.335938 0c0-42.234375-24.320312-78.78125-59.71875-96.417969-61.117187 40.15625-104.011719 105.765626-113.589843 181.757813 18.171874 14 40.933593 22.328125 65.644531 22.328125 59.460937 0 107.664062-48.203125 107.664062-107.667969zm281.203125 276.800781c13.003906-16.367187 24.050782-34.355468 32.777344-53.625-6.039062-53.738281-51.628906-95.507812-106.980469-95.507812-59.460937 0-107.667969 48.203125-107.667969 107.664062 0 57.9375 45.765626 105.179688 103.117188 107.566407 18.425781-9.984375 35.488281-22.164063 50.835938-36.1875 6.746093-12.09375 16.359374-22.367188 27.917968-29.910157zm-308.871094-149.132812c-59.464843 0-107.667968 48.203125-107.667968 107.667969 0 59.460937 48.203125 107.667969 107.667968 107.667969 59.460938 0 107.667969-48.207032 107.667969-107.667969 0-59.464844-48.207031-107.667969-107.667969-107.667969zm0 0" fill="#607882"/><path d="m94.308594 57.53125c33.933594 11.1875 58.4375 43.121094 58.4375 80.800781 0 46.988281-38.089844 85.078125-85.078125 85.078125-23.921875 0-45.519531-9.882812-60.976563-25.773437 13.058594-56.003907 44.5-104.933594 87.617188-140.105469zm0 0" fill="#c92c2c"/><path d="m22.148438 183.851562c2.203124 2.207032 2.203124 5.78125 0 7.988282-1.101563 1.101562-2.546876 1.652344-3.992188 1.652344s-2.890625-.550782-3.992188-1.652344c-1.644531-1.644532-3.195312-3.359375-4.667968-5.125 1.265625-4.503906 2.644531-8.960938 4.148437-13.363282 2.433594 3.742188 5.269531 7.265626 8.503907 10.5zm31.941406-67.078124c-2.203125-2.207032-5.78125-2.207032-7.984375 0-11.890625 11.886718-11.890625 31.234374 0 43.121093 1.101562 1.101563 2.546875 1.65625 3.992187 1.65625 1.445313 0 2.890625-.554687 3.992188-1.65625 2.207031-2.203125 2.207031-5.78125 0-7.984375-7.484375-7.488281-7.484375-19.667968 0-27.152344 2.207031-2.207031 2.207031-5.78125 0-7.984374zm13.578125 11.773437c-5.40625 0-9.789063 4.378906-9.789063 9.785156s4.382813 9.789063 9.789063 9.789063 9.785156-4.382813 9.785156-9.789063c0-5.402343-4.382813-9.785156-9.785156-9.785156zm-41.484375 14.574219c-2.605469 5.292968-5.027344 10.6875-7.269532 16.175781 2.582032 6.019531 6.3125 11.664063 11.21875 16.570313 1.101563 1.105468 2.546876 1.65625 3.992188 1.65625s2.890625-.550782 3.992188-1.65625c2.207031-2.203126 2.207031-5.78125 0-7.984376-6.925782-6.929687-10.898438-15.707031-11.933594-24.761718zm94.988281-58.292969c-2.203125-2.207031-5.78125-2.207031-7.988281 0-2.203125 2.203125-2.203125 5.78125 0 7.984375 12.160156 12.160156 18.855468 28.324219 18.855468 45.519531 0 17.195313-6.695312 33.363281-18.855468 45.519531-2.203125 2.207032-2.203125 5.78125 0 7.988282 1.105468 1.101562 2.550781 1.652344 3.996094 1.652344 1.441406 0 2.886718-.550782 3.992187-1.652344 14.292969-14.292969 22.164063-33.292969 22.164063-53.507813 0-20.210937-7.871094-39.210937-22.164063-53.503906zm-31.941406 31.945313c-2.207031-2.207032-5.78125-2.207032-7.988281 0-2.207032 2.203124-2.207032 5.777343 0 7.984374 7.484374 7.484376 7.484374 19.667969 0 27.152344-2.207032 2.203125-2.207032 5.78125 0 7.984375 1.101562 1.105469 2.546874 1.65625 3.992187 1.65625s2.890625-.554687 3.992187-1.65625c11.890626-11.886719 11.890626-31.234375.003907-43.121093zm15.96875-15.972657c-2.203125-2.207031-5.777344-2.207031-7.984375 0-2.207032 2.203125-2.207032 5.78125 0 7.984375 16.292968 16.292969 16.292968 42.804688 0 59.097656-2.207032 2.203126-2.207032 5.78125 0 7.984376 1.101562 1.105468 2.546875 1.65625 3.992187 1.65625 1.445313 0 2.890625-.550782 3.992188-1.65625 20.695312-20.695313 20.695312-54.371094 0-75.066407zm0 0" fill="#d73131"/><path d="m387.414062 138.332031c0 46.988281-38.089843 85.078125-85.078124 85.078125-46.988282 0-85.078126-38.089844-85.078126-85.078125s38.089844-85.078125 85.078126-85.078125c46.988281 0 85.078124 38.089844 85.078124 85.078125zm0 0" fill="#8f4a4b"/><path d="m312.125 138.332031c0 5.40625-4.382812 9.789063-9.789062 9.789063s-9.789063-4.382813-9.789063-9.789063 4.382813-9.785156 9.789063-9.785156 9.789062 4.382813 9.789062 9.785156zm-39.335938-29.546875c2.203126-2.207031 2.203126-5.78125 0-7.984375-2.203124-2.207031-5.78125-2.207031-7.984374 0-20.699219 20.695313-20.699219 54.371094 0 75.066407 1.101562 1.101562 2.546874 1.652343 3.992187 1.652343s2.890625-.550781 3.992187-1.652343c2.203126-2.207032 2.203126-5.78125 0-7.988282-16.292968-16.289062-16.292968-42.800781 0-59.09375zm15.96875 7.988282c-2.203124-2.207032-5.777343-2.207032-7.984374 0-11.890626 11.886718-11.890626 31.234374 0 43.121093 1.101562 1.101563 2.546874 1.65625 3.992187 1.65625s2.890625-.554687 3.992187-1.65625c2.207032-2.203125 2.207032-5.78125 0-7.984375-7.484374-7.488281-7.484374-19.667968 0-27.152344 2.207032-2.207031 2.207032-5.78125 0-7.984374zm-50.796874 21.558593c0-17.195312 6.695312-33.359375 18.855468-45.519531 2.207032-2.203125 2.207032-5.777344 0-7.984375-2.203125-2.207031-5.78125-2.207031-7.984375 0-14.292969 14.289063-22.164062 33.292969-22.164062 53.503906 0 20.214844 7.871093 39.214844 22.164062 53.507813 1.101563 1.101562 2.546875 1.652344 3.992188 1.652344 1.445312 0 2.890625-.550782 3.992187-1.652344 2.207032-2.207032 2.207032-5.78125 0-7.988282-12.160156-12.15625-18.855468-28.324218-18.855468-45.519531zm117.878906-53.503906c-2.203125-2.207031-5.777344-2.207031-7.984375 0-2.207031 2.203125-2.207031 5.78125 0 7.984375 12.160156 12.160156 18.855469 28.324219 18.855469 45.519531 0 17.195313-6.695313 33.363281-18.855469 45.519531-2.207031 2.207032-2.207031 5.78125 0 7.988282 1.101562 1.101562 2.546875 1.652344 3.992187 1.652344 1.445313 0 2.890625-.550782 3.992188-1.652344 14.292968-14.292969 22.164062-33.292969 22.164062-53.507813 0-20.210937-7.871094-39.210937-22.164062-53.503906zm-15.96875 15.972656c-2.207032-2.207031-5.78125-2.207031-7.988282 0-2.203124 2.203125-2.203124 5.78125 0 7.984375 16.292969 16.292969 16.292969 42.804688 0 59.097656-2.203124 2.203126-2.203124 5.78125 0 7.984376 1.101563 1.105468 2.546876 1.65625 3.992188 1.65625s2.890625-.550782 3.992188-1.65625c20.699218-20.695313 20.699218-54.371094.003906-75.066407zm-15.972656 15.972657c-2.207032-2.207032-5.78125-2.207032-7.988282 0-2.203125 2.203124-2.203125 5.777343 0 7.984374 7.488282 7.484376 7.488282 19.667969 0 27.152344-2.203125 2.203125-2.203125 5.78125 0 7.984375 1.105469 1.105469 2.550782 1.65625 3.992188 1.65625 1.445312 0 2.890625-.554687 3.996094-1.65625 11.886718-11.886719 11.886718-31.234375 0-43.121093zm0 0" fill="#a65759"/><path d="m232.742188 373.667969c0 46.988281-38.089844 85.078125-85.078126 85.078125-46.988281 0-85.078124-38.089844-85.078124-85.078125s38.089843-85.078125 85.078124-85.078125c46.988282 0 85.078126 38.089844 85.078126 85.078125zm0 0" fill="#fff2b4"/><path d="m207.105469 370.816406c-2.335938 14-9.980469 26.253906-21.53125 34.503906-9.5 6.785157-21.078125 9.464844-32.59375 7.546876-11.515625-1.917969-21.59375-8.210938-28.382813-17.710938-5.613281-7.859375-7.832031-17.4375-6.246094-26.96875 1.589844-9.53125 6.792969-17.871094 14.65625-23.484375 6.550782-4.679687 14.53125-6.527344 22.46875-5.203125 7.941407 1.320312 14.890626 5.65625 19.570313 12.207031 3.925781 5.5 5.476563 12.203125 4.367187 18.871094-1.109374 6.667969-4.753906 12.503906-10.253906 16.433594-4.664062 3.332031-10.339844 4.644531-15.992187 3.703125-5.648438-.941406-10.59375-4.027344-13.925781-8.6875-2.847657-3.992188-3.976563-8.851563-3.167969-13.6875.804687-4.835938 3.445312-9.070313 7.4375-11.921875 2.695312-1.925781 6.441406-1.300781 8.371093 1.394531 1.925782 2.699219 1.300782 6.445312-1.398437 8.371094-1.378906.988281-2.296875 2.453125-2.574219 4.128906s.109375 3.359375 1.097656 4.742188c1.46875 2.050781 3.644532 3.410156 6.132813 3.824218 2.492187.414063 4.992187-.164062 7.046875-1.628906 2.890625-2.066406 4.804688-5.136719 5.390625-8.644531.585937-3.503907-.230469-7.03125-2.296875-9.921875-2.816406-3.941406-7-6.550782-11.777344-7.347656-4.773437-.796876-9.578125.316406-13.519531 3.132812-5.253906 3.75-8.730469 9.324219-9.792969 15.691406-1.0625 6.367188.421875 12.769532 4.171875 18.023438 4.925781 6.890625 12.238281 11.453125 20.59375 12.847656 8.351563 1.390625 16.753907-.554688 23.644531-5.476562 8.941407-6.386719 14.863282-15.875 16.667969-26.714844 1.804688-10.835938-.714843-21.730469-7.105469-30.675782-16.960937-23.742187-50.078124-29.265624-73.824218-12.304687-14.707032 10.503906-24.441406 26.105469-27.414063 43.933594-2.96875 17.824219 1.179688 35.738281 11.683594 50.445312 16.667969 23.332031 42.925781 35.824219 69.621094 35.988281-6.585938 1.636719-13.472657 2.519532-20.566407 2.519532-11.765624 0-22.976562-2.390625-33.171874-6.710938-9.871094-6.539062-18.558594-14.898437-25.648438-24.820312-12.367188-17.316406-17.25-38.410156-13.753906-59.394532 3.5-20.988281 14.960937-39.355468 32.273437-51.722656 29.128907-20.808594 69.757813-14.039062 90.566407 15.09375 8.25 11.550782 11.507812 25.621094 9.175781 39.625zm0 0" fill="#ffdf8e"/><path d="m41.910156 242.890625c-14.71875-3.613281-28.246094-10.25-39.886718-19.21875.65625-5.207031 1.484374-10.359375 2.449218-15.46875 9.835938 14.472656 22.636719 26.398437 37.4375 34.6875zm176.101563-104.558594c0-45.574219 23.792969-85.085937 58.566406-104.558593-47.023437 11.546874-81.90625 53.976562-81.90625 104.558593 0 50.585938 34.882813 93.011719 81.90625 104.558594-34.773437-19.472656-58.566406-58.984375-58.566406-104.558594zm-96.105469 130.777344c-47.023438 11.542969-81.910156 53.972656-81.910156 104.558594 0 50.582031 34.886718 93.011719 81.910156 104.558593-34.773438-19.472656-58.570312-58.984374-58.570312-104.558593.003906-45.574219 23.796874-85.085938 58.570312-104.558594zm176.101562 104.558594c0-45.574219 23.792969-85.085938 58.566407-104.558594-47.019531 11.542969-81.90625 53.972656-81.90625 104.558594 0 50.582031 34.886719 93.011719 81.90625 104.558593-34.773438-19.472656-58.566407-58.984374-58.566407-104.558593zm0 0" fill="#495959"/><path d="m456.847656 414.734375c-8.582031 10.84375-18.023437 20.980469-28.226562 30.300781-13.324219 8.660156-29.210938 13.710938-46.289063 13.710938-46.988281 0-85.078125-38.089844-85.078125-85.078125s38.089844-85.078125 85.078125-85.078125 85.078125 38.089844 85.078125 85.078125c.003906 14.894531-3.835937 28.890625-10.5625 41.066406zm0 0" fill="#fdbf43"/><path d="m441.773438 370.816406c-2.332032 14-9.976563 26.253906-21.527344 34.503906-9.503906 6.785157-21.078125 9.464844-32.59375 7.546876-11.519532-1.917969-21.597656-8.210938-28.382813-17.710938-5.617187-7.859375-7.835937-17.4375-6.246093-26.96875 1.585937-9.53125 6.792968-17.871094 14.652343-23.484375 6.550781-4.679687 14.535157-6.527344 22.472657-5.203125 7.9375 1.320312 14.886718 5.65625 19.566406 12.207031 3.929687 5.5 5.480468 12.203125 4.371094 18.871094-1.113282 6.667969-4.753907 12.503906-10.257813 16.433594-4.660156 3.332031-10.335937 4.644531-15.988281 3.703125s-10.597656-4.027344-13.925782-8.6875c-2.851562-3.992188-3.976562-8.851563-3.171874-13.6875.808593-4.835938 3.449218-9.070313 7.441406-11.921875 2.691406-1.925781 6.441406-1.300781 8.367187 1.394531 1.925781 2.699219 1.300781 6.445312-1.394531 8.371094-1.382812.988281-2.296875 2.453125-2.574219 4.128906-.28125 1.675781.109375 3.359375 1.097657 4.742188 1.464843 2.050781 3.644531 3.410156 6.132812 3.824218 2.492188.414063 4.992188-.164062 7.042969-1.628906 2.894531-2.066406 4.808593-5.136719 5.390625-8.644531.585937-3.503907-.230469-7.03125-2.296875-9.921875-2.8125-3.941406-6.996094-6.550782-11.773438-7.347656-4.777343-.796876-9.582031.316406-13.523437 3.132812-5.253906 3.75-8.730469 9.324219-9.792969 15.691406-1.058594 6.367188.421875 12.769532 4.175781 18.023438 4.921875 6.890625 12.234375 11.453125 20.589844 12.847656 8.355469 1.390625 16.753906-.554688 23.648438-5.476562 8.941406-6.386719 14.859374-15.875 16.664062-26.714844 1.808594-10.835938-.714844-21.730469-7.101562-30.675782-16.964844-23.742187-50.082032-29.265624-73.828126-12.304687-14.703124 10.503906-24.4375 26.105469-27.410156 43.933594-2.972656 17.824219 1.175782 35.738281 11.683594 50.445312 16.664062 23.332031 42.925781 35.824219 69.621094 35.988281-6.589844 1.636719-13.472656 2.519532-20.566406 2.519532-11.769532 0-22.976563-2.390625-33.171876-6.710938-9.871093-6.539062-18.5625-14.898437-25.648437-24.820312-12.367187-17.316406-17.253906-38.410156-13.753906-59.394532 3.496093-20.988281 14.957031-39.355468 32.269531-51.722656 29.128906-20.808594 69.761719-14.039062 90.570312 15.09375 8.246094 11.550782 11.507813 25.621094 9.171876 39.625zm0 0" fill="#fc9302"/><path d="m182 352.664062c0 3.3125-2.6875 6-6 6-2.960938 0-5.84375.378907-8.335938 1.101563-3.183593.917969-6.507812-.917969-7.425781-4.101563-.164062-.558593-.238281-1.117187-.238281-1.667968 0-2.605469 1.710938-5.003906 4.339844-5.761719 3.558594-1.027344 7.589844-1.570313 11.660156-1.570313 3.3125 0 6 2.6875 6 6zm-10-30c0-3.3125-2.6875-6-6-6-4.070312 0-8.101562.542969-11.660156 1.570313-2.628906.757813-4.339844 3.15625-4.339844 5.761719 0 .550781.074219 1.109375.238281 1.667968.917969 3.183594 4.242188 5.019532 7.425781 4.101563 2.492188-.722656 5.375-1.101563 8.335938-1.101563 3.3125 0 6-2.6875 6-6zm-25.101562 58.070313c-2.902344-1.601563-6.550782-.550781-8.152344 2.351563-1.253906 2.269531-3.023438 4.578124-5.117188 6.671874-2.34375 2.34375-2.34375 6.140626 0 8.484376s6.144532 2.34375 8.488282 0c2.875-2.878907 5.34375-6.113282 7.132812-9.355469 1.324219-2.394531.835938-5.300781-1.007812-7.140625-.386719-.390625-.835938-.734375-1.34375-1.011719zm-71.871094 0c-2.902344-1.601563-6.550782-.550781-8.152344 2.351563-.832031 1.507812-1.910156 3.023437-3.140625 4.492187.699219 4.230469 1.707031 8.355469 3 12.351563 1.28125-.160157 2.527344-.703126 3.507813-1.6875 2.878906-2.878907 5.347656-6.113282 7.136718-9.355469 1.320313-2.394531.835938-5.300781-1.007812-7.144531-.390625-.386719-.839844-.730469-1.34375-1.007813zm0 0" fill="#49cb5c"/><path d="m178.246094 421.761719c1.839844 1.839843 2.328125 4.746093 1.007812 7.140625-1.792968 3.242187-4.261718 6.480468-7.136718 9.355468-2.34375 2.34375-6.144532 2.34375-8.484376 0-2.34375-2.34375-2.34375-6.140624 0-8.484374 2.09375-2.09375 3.859376-4.402344 5.113282-6.671876 1.601562-2.902343 5.253906-3.953124 8.152344-2.355468.507812.28125.957031.625 1.347656 1.015625zm-49.582032-75.761719c0-3.3125-2.6875-6-6-6s-6 2.6875-6 6c0 4.070312.542969 8.101562 1.570313 11.660156.757813 2.628906 3.15625 4.339844 5.761719 4.339844.550781 0 1.109375-.074219 1.667968-.238281 3.183594-.917969 5.019532-4.242188 4.101563-7.425781-.722656-2.492188-1.101563-5.375-1.101563-8.335938zm102.394532 10.761719c-3.050782.195312-6.023438.691406-8.71875 1.472656-2.628906.757813-4.339844 3.15625-4.339844 5.761719 0 .550781.074219 1.109375.238281 1.667968.917969 3.183594 4.242188 5.019532 7.425781 4.101563 2.09375-.605469 4.46875-.953125 6.925782-1.054687-.234375-4.066407-.746094-8.058594-1.53125-11.949219zm-53.152344 34.378906c-2.269531-1.253906-4.578125-3.023437-6.671875-5.113281-2.34375-2.34375-6.140625-2.34375-8.484375 0-2.34375 2.339844-2.34375 6.140625 0 8.484375 2.878906 2.878906 6.113281 5.34375 9.355469 7.136719 2.394531 1.320312 5.300781.835937 7.140625-1.007813.390625-.390625.734375-.839844 1.011718-1.34375 1.601563-2.902344.550782-6.554687-2.351562-8.15625zm0 0" fill="#058b1c"/></svg>