<?xml version="1.0" encoding="iso-8859-1"?>
<!-- Generator: Adobe Illustrator 19.0.0, SVG Export Plug-In . SVG Version: 6.00 Build 0)  -->
<svg version="1.1" id="Capa_1" xmlns="http://www.w3.org/2000/svg" xmlns:xlink="http://www.w3.org/1999/xlink" x="0px" y="0px"
	 viewBox="0 0 512 512" style="enable-background:new 0 0 512 512;" xml:space="preserve">
<circle style="fill:#F7F0E6;" cx="256" cy="256" r="256"/>
<g>
	<circle style="fill:#EEE2D4;" cx="256" cy="256" r="168.91"/>
	<path style="fill:#EEE2D4;" d="M414.696,353.104l-48.168-48.168V154.755c0-4.879-3.948-8.828-8.827-8.828
		c-1.385,0-2.652,0.383-3.818,0.95c-3.723-2.897-9.384-3.15-13.315,0.781l-65.658,65.658L172.47,110.878
		c-3.931-3.931-9.591-3.678-13.315-0.782c-1.166-0.567-2.434-0.949-3.819-0.949c-4.879,0-8.828,3.948-8.828,8.828v223.744
		L98.34,389.887c-3.929,3.929-3.678,9.587-0.784,13.31c-0.567,1.167-0.95,2.433-0.95,3.819c0,4.879,3.948,8.828,8.828,8.828h233.828
		c15.034,0,27.267-12.224,27.267-27.259v-9.523h41.075c4.879,0,8.828-3.948,8.828-8.828c0-1.386-0.381-2.653-0.95-3.819
		C418.374,362.69,418.625,357.033,414.696,353.104z"/>
</g>
<circle style="fill:#BE6C84;" cx="242.02" cy="247.55" r="124.94"/>
<path style="fill:#FFCD6E;" d="M113.238,374.989l242.226-242.226c6.322-6.322,17.13-1.844,17.13,7.095v233.829
	c0,10.18-8.252,18.433-18.432,18.433H120.334C111.393,392.119,106.917,381.311,113.238,374.989z"/>
<path style="fill:#FCB86B;" d="M120.331,400.945h233.828c15.034,0,27.267-12.224,27.267-27.259V139.859
	c0-4.879-3.948-8.828-8.828-8.828s-8.828,3.948-8.828,8.828v233.828c0,5.293-4.31,9.603-9.612,9.603H120.331
	c-4.879,0-8.828,3.948-8.828,8.828C111.503,396.997,115.451,400.945,120.331,400.945z"/>
<path style="fill:#FFCD6E;" d="M429.593,338.207L187.366,95.981c-6.322-6.322-17.13-1.844-17.13,7.095v233.829
	c0,10.18,8.252,18.433,18.432,18.433h233.829C431.438,355.338,435.914,344.529,429.593,338.207z"/>
<g>
	<circle style="fill:#E29F70;" cx="257.1" cy="282.85" r="51.13"/>
	<path style="fill:#E29F70;" d="M305.477,214.092c-17.72,3.506-31.088,19.112-31.088,37.861c0,21.329,17.29,38.62,38.62,38.62
		c18.749,0,34.355-13.369,37.861-31.088L305.477,214.092z"/>
</g>
<g>
	<circle style="fill:#B45573;" cx="238.25" cy="284.38" r="23.04"/>
	<circle style="fill:#B45573;" cx="283.77" cy="277.19" r="18.432"/>
	<circle style="fill:#B45573;" cx="253.18" cy="226.31" r="18.432"/>
</g>
<g>
	<path style="fill:#CB7971;" d="M204.784,247.81c-1.328,0-2.681-0.302-3.948-0.94c-4.362-2.181-6.121-7.491-3.931-11.845
		l2.888-5.759c2.181-4.353,7.491-6.121,11.845-3.931c4.362,2.181,6.121,7.491,3.931,11.845l-2.888,5.759
		C211.138,246.026,208.017,247.81,204.784,247.81z"/>
	<path style="fill:#CB7971;" d="M332.103,304.259c-2.56,0-5.095-1.103-6.845-3.241l-5.181-6.336
		c-3.086-3.776-2.526-9.336,1.25-12.422c3.767-3.086,9.319-2.534,12.422,1.25l5.181,6.336c3.086,3.776,2.526,9.336-1.25,12.422
		C336.043,303.603,334.069,304.259,332.103,304.259z"/>
	<path style="fill:#CB7971;" d="M277.957,337.672c-0.224,0-0.457-0.009-0.69-0.026l-7.483-0.578
		c-4.862-0.379-8.491-4.621-8.121-9.483s4.422-8.474,9.483-8.121l7.483,0.578c4.862,0.379,8.491,4.621,8.121,9.483
		C286.397,334.155,282.526,337.672,277.957,337.672z"/>
</g>
<path style="fill:#FCB86B;" d="M422.5,364.164H188.672c-15.034,0-27.267-12.224-27.267-27.259V103.078
	c0-4.879,3.948-8.828,8.828-8.828c4.879,0,8.828,3.948,8.828,8.828v233.828c0,5.293,4.31,9.603,9.612,9.603H422.5
	c4.879,0,8.828,3.948,8.828,8.828S427.379,364.164,422.5,364.164z"/>
<g>
	<path style="fill:#A04B69;" d="M249.656,296.015c-12.725,0-23.04-10.316-23.04-23.04c0-3.407,0.786-6.615,2.113-9.525
		c-7.958,3.63-13.516,11.61-13.516,20.927c0,12.725,10.316,23.041,23.041,23.041c9.317,0,17.297-5.558,20.927-13.516
		C256.272,295.23,253.064,296.015,249.656,296.015z"/>
	<path style="fill:#A04B69;" d="M263.849,234.076c-10.18,0-18.433-8.252-18.433-18.432c0-2.304,0.473-4.487,1.246-6.521
		c-6.949,2.64-11.912,9.312-11.912,17.188c0,10.18,8.253,18.433,18.433,18.433c7.876,0,14.547-4.963,17.187-11.912
		C268.336,233.603,266.153,234.076,263.849,234.076z"/>
	<path style="fill:#A04B69;" d="M293.888,285.511c-10.18,0-18.432-8.252-18.432-18.432c0-2.46,0.502-4.796,1.376-6.942
		c-6.734,2.744-11.491,9.336-11.491,17.057c0,10.18,8.253,18.433,18.433,18.433c7.721,0,14.312-4.757,17.057-11.491
		C298.684,285.009,296.348,285.511,293.888,285.511z"/>
</g>
<circle style="fill:#E29F70;" cx="228.42" cy="333.05" r="21.894"/>
<g>
</g>
<g>
</g>
<g>
</g>
<g>
</g>
<g>
</g>
<g>
</g>
<g>
</g>
<g>
</g>
<g>
</g>
<g>
</g>
<g>
</g>
<g>
</g>
<g>
</g>
<g>
</g>
<g>
</g>
</svg>
